<svg id="visual" viewBox="0 0 900 600" width="900" height="600" xmlns="http://www.w3.org/2000/svg" xmlns:xlink="http://www.w3.org/1999/xlink" version="1.1"><g stroke-width="1" stroke-linejoin="bevel"><path d="M484 320L473 383L580 401Z" fill="#277297" stroke="#277297"></path><path d="M580 401L612 265L484 320Z" fill="#246688" stroke="#246688"></path><path d="M473 383L471 486L580 401Z" fill="#297ea6" stroke="#297ea6"></path><path d="M612 265L499 224L484 320Z" fill="#15384f" stroke="#15384f"></path><path d="M484 320L373 282L473 383Z" fill="#0c2435" stroke="#0c2435"></path><path d="M612 265L583 221L499 224Z" fill="#081a28" stroke="#081a28"></path><path d="M633 501L661 463L580 401Z" fill="#277297" stroke="#277297"></path><path d="M580 401L700 389L612 265Z" fill="#297ea6" stroke="#297ea6"></path><path d="M661 463L700 389L580 401Z" fill="#112e42" stroke="#112e42"></path><path d="M612 265L693 201L583 221Z" fill="#297ea6" stroke="#297ea6"></path><path d="M471 486L633 501L580 401Z" fill="#15384f" stroke="#15384f"></path><path d="M499 224L373 282L484 320Z" fill="#246688" stroke="#246688"></path><path d="M473 383L407 490L471 486Z" fill="#112e42" stroke="#112e42"></path><path d="M700 389L692 283L612 265Z" fill="#297ea6" stroke="#297ea6"></path><path d="M362 425L407 490L473 383Z" fill="#19435d" stroke="#19435d"></path><path d="M471 486L513 600L633 501Z" fill="#277297" stroke="#277297"></path><path d="M373 282L362 425L473 383Z" fill="#297ea6" stroke="#297ea6"></path><path d="M314 328L329 413L362 425Z" fill="#112e42" stroke="#112e42"></path><path d="M362 425L302 487L407 490Z" fill="#277297" stroke="#277297"></path><path d="M373 282L314 328L362 425Z" fill="#246688" stroke="#246688"></path><path d="M778 278L693 201L692 283Z" fill="#19435d" stroke="#19435d"></path><path d="M692 283L693 201L612 265Z" fill="#1d4e6b" stroke="#1d4e6b"></path><path d="M583 221L535 132L499 224Z" fill="#297ea6" stroke="#297ea6"></path><path d="M575 87L535 132L583 221Z" fill="#0c2435" stroke="#0c2435"></path><path d="M499 224L366 183L373 282Z" fill="#15384f" stroke="#15384f"></path><path d="M373 282L276 237L314 328Z" fill="#246688" stroke="#246688"></path><path d="M404 600L471 486L407 490Z" fill="#277297" stroke="#277297"></path><path d="M404 600L513 600L471 486Z" fill="#277297" stroke="#277297"></path><path d="M380 113L366 183L499 224Z" fill="#0c2435" stroke="#0c2435"></path><path d="M700 389L778 278L692 283Z" fill="#00101c" stroke="#00101c"></path><path d="M816 421L778 278L700 389Z" fill="#297ea6" stroke="#297ea6"></path><path d="M223 517L302 487L172 369Z" fill="#246688" stroke="#246688"></path><path d="M329 413L302 487L362 425Z" fill="#112e42" stroke="#112e42"></path><path d="M513 600L639 600L633 501Z" fill="#1d4e6b" stroke="#1d4e6b"></path><path d="M633 501L703 600L661 463Z" fill="#00101c" stroke="#00101c"></path><path d="M661 463L816 421L700 389Z" fill="#277297" stroke="#277297"></path><path d="M336 600L404 600L407 490Z" fill="#297ea6" stroke="#297ea6"></path><path d="M683 112L575 87L583 221Z" fill="#19435d" stroke="#19435d"></path><path d="M535 132L380 113L499 224Z" fill="#112e42" stroke="#112e42"></path><path d="M683 112L583 221L693 201Z" fill="#15384f" stroke="#15384f"></path><path d="M366 183L276 237L373 282Z" fill="#0c2435" stroke="#0c2435"></path><path d="M172 369L302 487L329 413Z" fill="#1d4e6b" stroke="#1d4e6b"></path><path d="M814 501L816 421L661 463Z" fill="#112e42" stroke="#112e42"></path><path d="M506 0L380 113L535 132Z" fill="#246688" stroke="#246688"></path><path d="M366 183L296 110L276 237Z" fill="#081a28" stroke="#081a28"></path><path d="M799 132L683 112L693 201Z" fill="#277297" stroke="#277297"></path><path d="M639 600L703 600L633 501Z" fill="#00101c" stroke="#00101c"></path><path d="M302 487L336 600L407 490Z" fill="#277297" stroke="#277297"></path><path d="M703 600L814 501L661 463Z" fill="#0c2435" stroke="#0c2435"></path><path d="M900 277L806 204L778 278Z" fill="#15384f" stroke="#15384f"></path><path d="M778 278L806 204L693 201Z" fill="#246688" stroke="#246688"></path><path d="M703 600L777 600L814 501Z" fill="#297ea6" stroke="#297ea6"></path><path d="M325 0L296 110L380 113Z" fill="#277297" stroke="#277297"></path><path d="M380 113L296 110L366 183Z" fill="#00101c" stroke="#00101c"></path><path d="M172 369L329 413L314 328Z" fill="#205a7a" stroke="#205a7a"></path><path d="M302 487L223 517L336 600Z" fill="#00101c" stroke="#00101c"></path><path d="M172 369L314 328L165 311Z" fill="#081a28" stroke="#081a28"></path><path d="M806 204L799 132L693 201Z" fill="#081a28" stroke="#081a28"></path><path d="M560 0L506 0L575 87Z" fill="#205a7a" stroke="#205a7a"></path><path d="M165 311L314 328L276 237Z" fill="#15384f" stroke="#15384f"></path><path d="M560 0L575 87L711 0Z" fill="#297ea6" stroke="#297ea6"></path><path d="M575 87L506 0L535 132Z" fill="#15384f" stroke="#15384f"></path><path d="M711 0L575 87L683 112Z" fill="#205a7a" stroke="#205a7a"></path><path d="M900 513L900 367L816 421Z" fill="#112e42" stroke="#112e42"></path><path d="M816 421L900 367L778 278Z" fill="#246688" stroke="#246688"></path><path d="M806 204L900 216L799 132Z" fill="#277297" stroke="#277297"></path><path d="M900 513L816 421L814 501Z" fill="#112e42" stroke="#112e42"></path><path d="M171 204L165 311L276 237Z" fill="#297ea6" stroke="#297ea6"></path><path d="M900 367L900 277L778 278Z" fill="#277297" stroke="#277297"></path><path d="M506 0L387 0L380 113Z" fill="#112e42" stroke="#112e42"></path><path d="M296 110L171 204L276 237Z" fill="#081a28" stroke="#081a28"></path><path d="M161 106L171 204L296 110Z" fill="#081a28" stroke="#081a28"></path><path d="M900 277L900 216L806 204Z" fill="#112e42" stroke="#112e42"></path><path d="M107 600L216 600L223 517Z" fill="#246688" stroke="#246688"></path><path d="M223 517L216 600L336 600Z" fill="#0c2435" stroke="#0c2435"></path><path d="M60 188L136 331L165 311Z" fill="#246688" stroke="#246688"></path><path d="M165 311L136 331L172 369Z" fill="#112e42" stroke="#112e42"></path><path d="M172 369L124 483L223 517Z" fill="#15384f" stroke="#15384f"></path><path d="M900 600L900 513L814 501Z" fill="#205a7a" stroke="#205a7a"></path><path d="M796 0L711 0L799 132Z" fill="#277297" stroke="#277297"></path><path d="M799 132L711 0L683 112Z" fill="#00101c" stroke="#00101c"></path><path d="M387 0L325 0L380 113Z" fill="#15384f" stroke="#15384f"></path><path d="M78 420L124 483L172 369Z" fill="#205a7a" stroke="#205a7a"></path><path d="M777 600L900 600L814 501Z" fill="#15384f" stroke="#15384f"></path><path d="M900 75L796 0L799 132Z" fill="#205a7a" stroke="#205a7a"></path><path d="M171 204L60 188L165 311Z" fill="#0c2435" stroke="#0c2435"></path><path d="M188 0L161 106L296 110Z" fill="#1d4e6b" stroke="#1d4e6b"></path><path d="M136 331L78 420L172 369Z" fill="#277297" stroke="#277297"></path><path d="M0 382L78 420L0 336Z" fill="#00101c" stroke="#00101c"></path><path d="M900 216L900 75L799 132Z" fill="#297ea6" stroke="#297ea6"></path><path d="M0 536L107 600L124 483Z" fill="#19435d" stroke="#19435d"></path><path d="M124 483L107 600L223 517Z" fill="#297ea6" stroke="#297ea6"></path><path d="M325 0L188 0L296 110Z" fill="#297ea6" stroke="#297ea6"></path><path d="M82 128L60 188L171 204Z" fill="#246688" stroke="#246688"></path><path d="M82 128L171 204L161 106Z" fill="#19435d" stroke="#19435d"></path><path d="M61 0L82 128L161 106Z" fill="#246688" stroke="#246688"></path><path d="M900 75L900 0L796 0Z" fill="#297ea6" stroke="#297ea6"></path><path d="M0 336L78 420L136 331Z" fill="#19435d" stroke="#19435d"></path><path d="M78 420L0 536L124 483Z" fill="#19435d" stroke="#19435d"></path><path d="M0 223L136 331L60 188Z" fill="#1d4e6b" stroke="#1d4e6b"></path><path d="M0 223L0 336L136 331Z" fill="#15384f" stroke="#15384f"></path><path d="M0 132L60 188L82 128Z" fill="#15384f" stroke="#15384f"></path><path d="M0 132L0 223L60 188Z" fill="#205a7a" stroke="#205a7a"></path><path d="M0 382L0 536L78 420Z" fill="#112e42" stroke="#112e42"></path><path d="M61 0L0 132L82 128Z" fill="#1d4e6b" stroke="#1d4e6b"></path><path d="M0 536L0 600L107 600Z" fill="#112e42" stroke="#112e42"></path><path d="M188 0L61 0L161 106Z" fill="#00101c" stroke="#00101c"></path><path d="M61 0L0 0L0 132Z" fill="#205a7a" stroke="#205a7a"></path></g></svg>